<svg id="Layer_1" enable-background="new 0 0 512.001 512.001" height="512" viewBox="0 0 512.001 512.001" width="512" xmlns="http://www.w3.org/2000/svg"><g><g clip-rule="evenodd" fill-rule="evenodd"><path d="m167.249 476.001v-131.873-40.354c-16.83-1.913-31.344-11.456-40-25.086v22.039 43.401 131.873z" fill="#c68a65"/><path d="m167.249 344.128h50.687 18.064v-40.001h-62.5c-2.114 0-4.2-.12-6.251-.353z" fill="#88df8e"/><path d="m127.249 344.128v-43.401-22.039c-5.382-8.474-8.499-18.529-8.499-29.311 0-23.149 14.366-42.942 34.669-50.951-5.795-8.805-9.17-19.344-9.17-30.674 0-30.629 24.644-55.501 55.185-55.871-8.045-20.981-28.374-35.879-52.186-35.879-30.859 0-55.875 25.016-55.875 55.875v20.001c-30.859 0-55.875 25.016-55.875 55.875 0 11.329 3.375 21.868 9.17 30.674-20.302 8.008-34.668 27.802-34.668 50.951 0 30.238 24.512 54.75 54.75 54.75z" fill="#88df8e"/><path d="m127.249 278.688c8.656 13.63 23.17 23.173 40 25.086 2.051.233 4.137.353 6.251.353h62.5v-43.401-90.526c0-11 9-20 20-20s20 9 20 20v35.68 98.247h52.5c5.613 0 11.058-.714 16.251-2.056 17.091-4.418 31.445-15.639 40-30.603 4.391-7.681 7.255-16.348 8.176-25.586.214-2.139.323-4.309.323-6.505 0-25.644-14.908-47.804-36.529-58.291 6.928-9.306 11.029-20.84 11.029-33.334 0-26.569-18.545-48.807-43.396-54.476-4.012-.915-8.189-1.399-12.479-1.399 0-30.859-25.016-55.875-55.875-55.875s-55.875 25.016-55.875 55.875v20.001c-.23 0-.46.001-.69.004-30.541.369-55.185 25.242-55.185 55.871 0 11.329 3.375 21.868 9.17 30.674-20.303 8.008-34.669 27.802-34.669 50.951 0 10.781 3.116 20.835 8.498 29.31z" fill="#a0e5a5"/><path d="m236 170.2v90.526 43.401 40.001 131.873h40v-131.873-40.001-98.247-35.68c0-11-9-20-20-20s-20 8.999-20 20z" fill="#d1a184"/><path d="m328.5 304.126h-52.5v40.001h68.751v-42.057c-5.193 1.342-10.639 2.056-16.251 2.056z" fill="#88df8e"/><path d="m384.751 271.467v72.66h50.687 1.813c35.761 0 64.75-28.99 64.75-64.75 0-25.644-14.908-47.804-36.529-58.291 6.928-9.306 11.029-20.84 11.029-33.333 0-30.859-25.016-55.875-55.875-55.875 0-30.859-25.016-55.875-55.875-55.875-15.886 0-30.224 6.63-40.397 17.272 24.852 5.669 43.396 27.907 43.396 54.476 0 12.493-4.101 24.028-11.029 33.334 21.621 10.487 36.529 32.647 36.529 58.291 0 2.195-.109 4.366-.323 6.505-.921 9.238-3.784 17.905-8.176 25.586z" fill="#88df8e"/><path d="m384.751 344.128v-72.66c-8.555 14.964-22.909 26.185-40 30.602v42.059 131.873h40z" fill="#c68a65"/></g><g><path d="m502.001 466h-107.25v-71.872h13.749c20.367 0 36.938-16.57 36.938-36.938v-3.521c37.379-4.092 66.563-35.843 66.563-74.294 0-24.748-12.522-47.953-32.639-61.752 4.695-9.189 7.14-19.343 7.14-29.872 0-33.153-24.619-60.665-56.536-65.215-4.55-31.916-32.062-56.535-65.215-56.535-16.243 0-31.515 5.824-43.547 16.468-4.578-31.883-32.073-56.469-65.204-56.469-33.122 0-60.602 24.576-65.19 56.449-6.95-6.129-15.189-10.791-24.239-13.564-5.275-1.616-10.872 1.351-12.491 6.632-1.618 5.28 1.352 10.873 6.632 12.491 9.197 2.818 17.181 8.449 22.942 15.965-28.377 7.334-49.404 33.142-49.404 63.778 0 9.142 1.875 18.082 5.482 26.339-19.119 11.609-30.981 32.295-30.981 55.285 0 11.637 3.102 22.557 8.498 32.005v9.347h-7.754c-6.752 0-12.245-5.493-12.245-12.246v-4.618c0-5.522-4.478-10-10-10s-10 4.478-10 10v4.618c0 17.78 14.465 32.246 32.245 32.246h7.754v23.4h-52.499c-24.675 0-44.75-20.075-44.75-44.75 0-18.51 11.124-34.858 28.339-41.648 2.801-1.105 4.955-3.414 5.864-6.285.908-2.872.475-6-1.181-8.516-4.922-7.478-7.523-16.183-7.523-25.175 0-25.296 20.579-45.875 45.875-45.875 5.522 0 10-4.478 10-10v-20.001c0-3.229.341-6.464 1.012-9.617 1.151-5.401-2.295-10.713-7.697-11.863-5.4-1.157-10.713 2.296-11.863 7.697-.963 4.52-1.451 9.157-1.451 13.783v10.759c-31.596 4.832-55.875 32.192-55.875 65.117 0 9.142 1.875 18.081 5.482 26.339-19.12 11.609-30.982 32.294-30.982 55.285 0 35.703 29.047 64.75 64.75 64.75h6.875v44.937c0 20.367 16.57 36.937 36.938 36.937h8.687v30h-107.25c-5.522 0-10 4.478-10 10s4.478 10 10 10h492.001c5.522 0 10-4.478 10-10s-4.478-10.001-10-10.001zm-93.501-91.872h-13.749v-20.001h.001 30.686v3.063c0 9.34-7.599 16.938-16.938 16.938zm2.126-242.251c0 5.522 4.478 10 10 10 25.296 0 45.876 20.579 45.876 45.875 0 9.946-3.13 19.408-9.051 27.361-1.779 2.391-2.4 5.45-1.692 8.345.707 2.896 2.668 5.324 5.35 6.624 19.056 9.243 30.893 28.131 30.893 49.294 0 27.407-20.244 50.173-46.563 54.137v-6.133c0-5.522-4.478-10-10-10s-10 4.478-10 10v6.747h-30.686-.001v-60.196c2.951-5.635 5.2-11.69 6.64-18.051h1.115c17.78 0 32.245-14.465 32.245-32.245v-4.618c0-5.522-4.478-10-10-10s-10 4.478-10 10v4.618c0 6.532-5.146 11.871-11.595 12.212-1.127-23.411-13.388-45.083-32.545-58.224 4.695-9.189 7.14-19.343 7.14-29.873 0-24.407-13.352-45.743-33.126-57.125 6.182-3.023 13.021-4.624 20.126-4.624 25.295.001 45.874 20.581 45.874 45.876zm-253.536 75.851c2.801-1.105 4.955-3.414 5.864-6.285.908-2.871.475-5.999-1.181-8.515-4.922-7.479-7.523-16.186-7.523-25.177 0-25.296 20.579-45.875 45.875-45.875 5.522 0 10-4.478 10-10v-20.001c0-25.295 20.579-45.875 45.875-45.875s45.875 20.579 45.875 45.875c0 5.522 4.478 10 10 10 25.296 0 45.876 20.579 45.876 45.875 0 9.947-3.13 19.409-9.051 27.362-1.779 2.391-2.4 5.45-1.692 8.345.707 2.896 2.668 5.324 5.35 6.624 19.056 9.243 30.893 28.131 30.893 49.294 0 30.189-24.561 54.75-54.75 54.75h-42.499-.001v-78.246h7.755c17.78 0 32.245-14.466 32.245-32.246v-4.618c0-5.522-4.478-10-10-10s-10 4.478-10 10v4.618c0 6.753-5.493 12.246-12.245 12.246h-7.756v-25.679c0-16.542-13.458-30-30-30s-30 13.458-30 30v80.525h-7.754c-6.752 0-12.245-5.493-12.245-12.245v-4.618c0-5.522-4.478-10-10-10s-10 4.478-10 10v4.618c0 17.78 14.465 32.245 32.245 32.245h7.754v23.4h-52.499c-24.675 0-44.75-20.075-44.75-44.75 0-18.509 11.124-34.857 28.339-41.647zm177.661 126.399h-48.75-.001v-20.002h.001 42.499c2.107 0 4.188-.11 6.251-.281zm-108.751 0h-48.75-.001v-20.002h48.751zm-48.751 20s.001 0 0 0h30.687v3.063c0 9.339-7.598 16.938-16.937 16.938h-13.75zm-68.686 61.873c-9.339 0-16.938-7.598-16.938-16.937v-44.937h25.624v61.874zm28.686 50v-163.001c6.024 4.085 12.768 7.183 20 9.059v153.942zm40 0v-71.872h13.75c16.25 0 30.073-10.553 35.001-25.163v97.035zm68.751 0v-295.8c0-5.514 4.486-10 10-10s10 4.486 10 10v295.8zm40 0v-111.873h.001 48.75v111.873zm68.751 0v-156.645c7.273-2.738 14.003-6.583 20-11.322v167.967z"/><path d="m118.951 93.692c5.522 0 10-4.478 10-10s-4.478-10-10-10h-.008c-5.522 0-9.996 4.478-9.996 10s4.482 10 10.004 10z"/></g></g></svg>