<svg id="Layer_1" enable-background="new 0 0 512 512" height="512" viewBox="0 0 512 512" width="512" xmlns="http://www.w3.org/2000/svg"><g><g clip-rule="evenodd" fill-rule="evenodd"><path d="m283.555 238.313-53.821-96.752c-2.345-4.212-5.747-7.649-9.806-10.069-12.732-7.593-28.985-3.036-36.302 10.178l-53.773 96.666c15.039 3.125 17.878 19.486 35.797 19.486 19.812 0 21.189-20 41-20s21.188 20 41 20c17.964.001 20.772-16.439 35.905-19.509z" fill="#e3eaef"/><path d="m247.652 257.823c-19.812 0-21.188-20-41-20s-21.188 20-41 20c-17.919 0-20.758-16.361-35.797-19.486l-119.854 215.458h143.005l22.779-40.949 41.206-74.076c5.124-9.255 16.507-12.446 25.424-7.128 2.842 1.695 5.225 4.102 6.867 7.052l35.706 64.188 33.946-61.024 11.11-19.972-46.489-83.572c-15.133 3.069-17.941 19.509-35.903 19.509z" fill="#c68a65"/><path d="m242.415 331.642c-8.916-5.318-20.3-2.127-25.424 7.128l-41.206 74.076c4.161 3.468 8.975 6.226 16.332 6.226 19.812 0 21.188-20 41-20s21.188 20 41 20c7.39 0 12.215-2.784 16.388-6.273l-5.516-9.917-35.706-64.188c-1.643-2.95-4.026-5.357-6.868-7.052z" fill="#e3eaef"/><path d="m274.117 419.072c-19.812 0-21.188-20-41-20s-21.188 20-41 20c-7.357 0-12.171-2.758-16.332-6.226l-22.779 40.949h160.304l-22.805-40.996c-4.173 3.489-8.998 6.273-16.388 6.273z" fill="#ddb9a3"/><path d="m284.989 402.882 5.516 9.917 22.805 40.996h188.69l-62.296-111.988c-4.955 4.636-10.183 8.977-19.412 8.977-19.812 0-21.188-20-41-20s-21.188 20-41 20c-9.195 0-14.418-4.308-19.357-8.926z" fill="#d1a184"/><path d="m338.292 350.784c19.812 0 21.188-20 41-20s21.188 20 41 20c9.229 0 14.457-4.34 19.412-8.977l-30.751-55.28-13.495-24.259c-1.642-2.95-4.025-5.357-6.867-7.052-8.916-5.318-20.3-2.127-25.424 7.128l-33.122 59.543-11.11 19.972c4.938 4.616 10.162 8.925 19.357 8.925z" fill="#e3eaef"/><path d="m330.044 321.886 33.122-59.543c5.124-9.255 16.507-12.446 25.424-7.128 2.842 1.695 5.225 4.102 6.867 7.052l13.495 24.259c17.868-19.43 27.808-44.881 27.808-71.323 0-58.194-47.175-105.369-105.369-105.369-37.234 0-71.653 19.645-90.61 51.587l42.773 76.891z" fill="#ffc144"/></g><g><path d="m510.739 448.934-89.655-161.168c16.594-20.505 25.676-46.069 25.676-72.563 0-63.614-51.754-115.368-115.369-115.368-19.626 0-39.059 5.053-56.198 14.613-12.845 7.164-24.213 16.755-33.444 28.141l-3.278-5.892c-3.156-5.67-7.798-10.44-13.421-13.792-8.421-5.024-18.247-6.39-27.668-3.848-9.604 2.593-17.596 8.902-22.495 17.751l-85.28 153.309c-2.685 4.826-.948 10.915 3.878 13.601 4.826 2.684 10.914.949 13.601-3.878l26.985-48.511c1.29 1.033 2.645 2.282 4.218 3.768 5.69 5.371 13.484 12.727 27.363 12.727 13.88 0 21.674-7.356 27.364-12.728 5.203-4.912 7.956-7.272 13.636-7.272s8.433 2.36 13.636 7.272c5.69 5.371 13.484 12.728 27.364 12.728s21.674-7.356 27.364-12.728c1.606-1.516 2.984-2.786 4.3-3.832l39.285 70.623-33.612 60.424-26.97-48.482c-2.469-4.432-6.094-8.158-10.481-10.774-6.603-3.938-14.305-5.008-21.693-3.014-7.516 2.029-13.767 6.961-17.592 13.869l-61.127 109.887h-120.12l36.323-65.297c2.685-4.826.948-10.915-3.878-13.601-4.827-2.686-10.915-.95-13.601 3.878l-44.59 80.158c-1.723 3.098-1.678 6.875.119 9.931 1.797 3.055 5.076 4.931 8.62 4.931h142.966c.01 0 .021.002.031.002s.02-.002.03-.002h160.384.016 188.574c3.544 0 6.823-1.876 8.62-4.931 1.797-3.057 1.842-6.834.119-9.932zm-83.91-109.7c-1.933 1.044-3.929 1.55-6.537 1.55-5.68 0-8.434-2.361-13.636-7.272-5.69-5.372-13.484-12.729-27.364-12.729s-21.674 7.356-27.364 12.729c-5.203 4.912-7.956 7.272-13.636 7.272-2.581 0-4.561-.494-6.475-1.514l40.098-72.083c1.188-2.146 3.076-3.66 5.316-4.265 2.111-.571 4.326-.259 6.238.883 1.37.816 2.493 1.966 3.248 3.323zm-165.542-98.683c-5.203 4.911-7.956 7.271-13.636 7.271s-8.433-2.36-13.636-7.272c-5.69-5.371-13.484-12.728-27.364-12.728s-21.674 7.356-27.364 12.728c-5.203 4.912-7.956 7.272-13.636 7.272s-8.433-2.36-13.637-7.271c-2.325-2.194-4.948-4.663-8.145-6.84l48.505-87.198c2.263-4.085 5.893-6.979 10.221-8.147 4.143-1.115 8.48-.509 12.212 1.716 2.603 1.553 4.743 3.746 6.188 6.341l48.523 87.229c-3.235 2.192-5.884 4.684-8.231 6.899zm-8.873-78.79c17.77-26.323 46.999-41.926 78.977-41.926 52.587 0 95.369 42.782 95.369 95.368 0 19.142-5.743 37.692-16.347 53.38l-6.219-11.179c-2.467-4.434-6.093-8.161-10.482-10.777-6.602-3.938-14.305-5.007-21.693-3.015-7.517 2.029-13.768 6.961-17.593 13.869l-24.383 43.833zm-26.674 181.853c1.188-2.146 3.075-3.66 5.316-4.265 2.115-.572 4.327-.257 6.237.882 1.369.816 2.494 1.968 3.249 3.324l36.32 65.292c-.835.146-1.742.225-2.747.225-5.68 0-8.433-2.36-13.636-7.272-5.69-5.371-13.484-12.728-27.364-12.728s-21.674 7.356-27.364 12.728c-5.203 4.912-7.956 7.272-13.636 7.272-.974 0-1.853-.078-2.668-.216zm-46.24 83.125c3.927 1.575 8.071 2.333 12.616 2.333 13.88 0 21.674-7.356 27.364-12.728 5.203-4.912 7.956-7.272 13.636-7.272s8.433 2.36 13.636 7.272c5.69 5.371 13.484 12.728 27.364 12.728 4.573 0 8.738-.769 12.684-2.362l9.504 17.086h-126.292zm139.692 17.057-22.76-40.914 25.663-46.133c4.387 2.413 9.593 4.035 16.198 4.035 13.88 0 21.674-7.356 27.364-12.729 5.203-4.912 7.956-7.272 13.636-7.272s8.433 2.36 13.635 7.272c5.691 5.371 13.484 12.729 27.365 12.729 6.635 0 11.86-1.636 16.261-4.069l48.441 87.081z"/><path d="m331.392 79.834c5.522 0 10-4.478 10-10v-11.631c0-5.522-4.478-10-10-10s-10 4.478-10 10v11.631c0 5.522 4.477 10 10 10z"/><path d="m272.277 82.022c1.478 4.061 5.313 6.582 9.397 6.582 1.136 0 2.291-.195 3.42-.606 5.189-1.889 7.865-7.627 5.976-12.817l-3.979-10.93c-1.889-5.189-7.63-7.866-12.817-5.976-5.189 1.889-7.865 7.627-5.976 12.817z"/><path d="m230.29 110.272c1.978 2.357 4.812 3.572 7.665 3.572 2.269 0 4.55-.768 6.423-2.34 4.23-3.55 4.783-9.857 1.232-14.088l-7.477-8.91c-3.549-4.231-9.857-4.781-14.088-1.232-4.23 3.55-4.783 9.857-1.232 14.088z"/><path d="m462.286 279.229c-4.786-2.764-10.9-1.123-13.66 3.66-2.762 4.783-1.122 10.899 3.66 13.66l10.072 5.814c1.575.909 3.294 1.342 4.99 1.342 3.457 0 6.818-1.794 8.67-5.002 2.762-4.783 1.122-10.899-3.66-13.66z"/><path d="m486.02 252.468c4.762 0 8.981-3.414 9.837-8.266.958-5.438-2.673-10.626-8.112-11.585l-11.454-2.019c-5.438-.967-10.625 2.672-11.585 8.111-.958 5.438 2.673 10.626 8.112 11.585l11.454 2.019c.588.106 1.171.155 1.748.155z"/><path d="m464.705 191.697c.855 4.852 5.075 8.266 9.837 8.266.576 0 1.161-.05 1.748-.154l11.454-2.019c5.439-.959 9.07-6.146 8.112-11.585-.959-5.438-6.149-9.08-11.585-8.111l-11.454 2.019c-5.439.958-9.07 6.146-8.112 11.584z"/><path d="m457.296 152.521c1.696 0 3.416-.433 4.99-1.342l10.072-5.815c4.783-2.762 6.422-8.877 3.66-13.66-2.761-4.782-8.877-6.421-13.66-3.66l-10.072 5.815c-4.783 2.762-6.422 8.877-3.66 13.66 1.853 3.208 5.213 5.002 8.67 5.002z"/><path d="m418.406 111.505c1.873 1.572 4.154 2.34 6.423 2.34 2.854 0 5.688-1.215 7.665-3.572l7.477-8.91c3.551-4.23 2.998-10.538-1.232-14.088s-10.538-3-14.088 1.232l-7.477 8.91c-3.551 4.23-2.998 10.538 1.232 14.088z"/><path d="m377.691 87.998c1.13.411 2.284.606 3.42.606 4.085 0 7.92-2.521 9.397-6.582l3.979-10.93c1.89-5.19-.786-10.929-5.976-12.817-5.194-1.89-10.93.786-12.817 5.976l-3.979 10.93c-1.89 5.19.786 10.928 5.976 12.817z"/><path d="m76.469 344.306c5.522 0 10-4.478 10-10s-4.478-10-10-10h-.008c-5.522 0-9.996 4.478-9.996 10s4.482 10 10.004 10z"/></g></g></svg>